<svg width="13" height="15" viewBox="0 0 13 15" fill="none" xmlns="http://www.w3.org/2000/svg">
<path d="M8.5 0.666992H4.5V2.00033H8.5V0.666992ZM5.83333 9.33366H7.16667V5.33366H5.83333V9.33366ZM11.1867 4.92699L12.1333 3.98033C11.8467 3.64033 11.5333 3.32033 11.1933 3.04033L10.2467 3.98699C9.21333 3.16033 7.91333 2.66699 6.5 2.66699C3.18667 2.66699 0.5 5.35366 0.5 8.66699C0.5 11.9803 3.18 14.667 6.5 14.667C9.82 14.667 12.5 11.9803 12.5 8.66699C12.5 7.25366 12.0067 5.95366 11.1867 4.92699ZM6.5 13.3337C3.92 13.3337 1.83333 11.247 1.83333 8.66699C1.83333 6.08699 3.92 4.00033 6.5 4.00033C9.08 4.00033 11.1667 6.08699 11.1667 8.66699C11.1667 11.247 9.08 13.3337 6.5 13.3337Z" fill="#00A5FF"/>
</svg>
