<svg width="20" height="18" viewBox="0 0 20 18" fill="none" xmlns="http://www.w3.org/2000/svg">
<path d="M3.79688 0.835815C3.72656 0.878784 3.63672 0.968628 3.59375 1.03894C3.51953 1.16394 3.51562 1.24207 3.51562 4.58582C3.51562 7.92957 3.51953 8.00769 3.59375 8.13269C3.63672 8.203 3.72656 8.29285 3.79688 8.33582C3.92578 8.41394 4.00781 8.41394 10 8.41394C15.9922 8.41394 16.0742 8.41394 16.2031 8.33582C16.2734 8.29285 16.3633 8.203 16.4062 8.13269C16.4805 8.00769 16.4844 7.92566 16.4844 4.60535C16.4844 0.816284 16.5 1.03503 16.2148 0.847534L16.082 0.75769H10.0039C4.00781 0.75769 3.92578 0.75769 3.79688 0.835815ZM15.2734 4.58582V7.203H10H4.72656V4.58582V1.96863H10H15.2734V4.58582Z" fill="#00A5FF"/>
<path d="M9.53514 2.828C9.43749 2.85143 9.2578 3.00378 8.83983 3.42175C8.23827 4.0194 8.17186 4.12878 8.22655 4.42175C8.2617 4.61315 8.49217 4.84362 8.68358 4.87878C8.99999 4.94128 9.07811 4.8944 9.67577 4.30065C10.2695 3.71471 10.3398 3.60534 10.3008 3.32409C10.25 2.96081 9.91014 2.74206 9.53514 2.828Z" fill="#00A5FF"/>
<path d="M11.5039 3.74206C11.4414 3.77331 11.0156 4.17175 10.5585 4.62878C9.85933 5.33972 9.73042 5.48815 9.70698 5.60925C9.62105 6.06628 9.97652 6.43737 10.4218 6.35925C10.5468 6.33972 10.6953 6.2069 11.4375 5.46862C12.1328 4.77722 12.3164 4.57409 12.3476 4.4569C12.4804 3.96081 11.9726 3.53112 11.5039 3.74206Z" fill="#00A5FF"/>
<path d="M2.20702 9.66003C1.22264 9.92175 0.441393 10.6483 0.128893 11.5975C-0.0156384 12.0428 -0.0429822 12.7968 0.0702991 13.246C0.37108 14.4335 1.38671 15.3319 2.57421 15.4686C2.70702 15.4803 2.81249 15.4999 2.81249 15.5077C2.81249 15.5116 2.70702 15.7343 2.57811 15.996C2.39452 16.371 2.34374 16.5116 2.34374 16.6522C2.34374 16.9999 2.59374 17.2421 2.94921 17.2421C3.29686 17.2421 3.36327 17.1678 3.80858 16.2694L4.19921 15.4843H9.99999H15.8008L16.1914 16.2694C16.6367 17.1678 16.7031 17.2421 17.0508 17.2421C17.4062 17.2421 17.6562 16.9999 17.6562 16.6522C17.6562 16.5116 17.6055 16.371 17.4219 15.996C17.293 15.7343 17.1875 15.5116 17.1875 15.5077C17.1875 15.4999 17.293 15.4803 17.4258 15.4686C18.6133 15.3319 19.6289 14.4335 19.9297 13.246C19.9961 12.9843 20.0039 12.8475 19.9922 12.4218C19.9609 11.5663 19.7344 11.0389 19.1406 10.4452C18.7656 10.0702 18.4453 9.86707 17.9883 9.71082L17.6758 9.60535L10.0781 9.59753C2.80077 9.58972 2.46874 9.59363 2.20702 9.66003ZM9.37499 12.535V14.2733H6.06249C2.45702 14.2733 2.51561 14.2772 2.10155 14.0507C1.83202 13.9022 1.50389 13.5428 1.35936 13.2303C1.14061 12.7694 1.16796 12.1132 1.41796 11.6952C1.65624 11.2928 1.98046 11.0272 2.40233 10.8788C2.6328 10.8007 2.71483 10.8007 6.0078 10.7968H9.37499V12.535ZM17.5703 10.8671C17.9883 10.9999 18.3437 11.2889 18.582 11.6952C18.832 12.1132 18.8594 12.7694 18.6406 13.2303C18.4961 13.5428 18.168 13.9022 17.8984 14.0507C17.4844 14.2772 17.543 14.2733 13.9375 14.2733H10.625V12.535V10.7968H13.9805C17.1367 10.7968 17.3515 10.8007 17.5703 10.8671Z" fill="#00A5FF"/>
<path d="M4.10156 12.0155C3.89453 12.16 3.8125 12.2967 3.8125 12.5077C3.8125 12.7225 3.90625 12.9139 4.07422 13.0389C4.17969 13.1171 4.23828 13.121 5.23438 13.1327C6.41406 13.1444 6.47266 13.1366 6.66406 12.8866C6.75391 12.7694 6.77344 12.6991 6.77344 12.5311C6.77344 12.2967 6.69922 12.1639 6.48438 12.0155C6.35938 11.9335 6.33203 11.9296 5.29297 11.9296C4.25391 11.9296 4.22656 11.9335 4.10156 12.0155Z" fill="#00A5FF"/>
<path d="M13.5156 12.0155C13.3008 12.1639 13.2266 12.2967 13.2266 12.5311C13.2266 12.6991 13.2461 12.7694 13.3359 12.8866C13.5273 13.1366 13.5859 13.1444 14.7656 13.1327C15.7617 13.121 15.8203 13.1171 15.9258 13.0389C16.0938 12.9139 16.1875 12.7225 16.1875 12.5077C16.1875 12.2967 16.1055 12.16 15.8984 12.0155C15.7734 11.9335 15.7461 11.9296 14.707 11.9296C13.668 11.9296 13.6406 11.9335 13.5156 12.0155Z" fill="#00A5FF"/>
</svg>
