<svg width="18" height="18" viewBox="0 0 18 18" fill="none" xmlns="http://www.w3.org/2000/svg">
<path fill-rule="evenodd" clip-rule="evenodd" d="M8.99999 0.666626C4.39166 0.666626 0.666656 4.39163 0.666656 8.99996C0.666656 13.6083 4.39166 17.3333 8.99999 17.3333C13.6083 17.3333 17.3333 13.6083 17.3333 8.99996C17.3333 4.39163 13.6083 0.666626 8.99999 0.666626ZM12.5833 12.5833C12.2583 12.9083 11.7333 12.9083 11.4083 12.5833L8.99999 10.175L6.59166 12.5833C6.26666 12.9083 5.74166 12.9083 5.41666 12.5833C5.09166 12.2583 5.09166 11.7333 5.41666 11.4083L7.82499 8.99996L5.41666 6.59163C5.09166 6.26663 5.09166 5.74163 5.41666 5.41663C5.74166 5.09163 6.26666 5.09163 6.59166 5.41663L8.99999 7.82496L11.4083 5.41663C11.7333 5.09163 12.2583 5.09163 12.5833 5.41663C12.9083 5.74163 12.9083 6.26663 12.5833 6.59163L10.175 8.99996L12.5833 11.4083C12.9 11.725 12.9 12.2583 12.5833 12.5833Z" fill="#969696"/>
</svg>
