<svg width="41" height="41" viewBox="0 0 41 41" fill="none" xmlns="http://www.w3.org/2000/svg">
<path fill-rule="evenodd" clip-rule="evenodd" d="M8.65405 3.89181C7.22339 4.89217 5.92969 6.07492 4.80664 7.40634C9.39594 6.98027 15.2265 7.67599 21.9957 11.0606C29.2243 14.6748 35.0451 14.797 39.0961 14.0156C38.7285 12.9027 38.2657 11.8331 37.7176 10.8163C33.0803 11.3054 27.1353 10.658 20.2069 7.19392C15.8073 4.99412 11.9291 4.08795 8.65405 3.89181ZM35.0087 6.96059C31.3466 2.86894 26.0247 0.293945 20.1013 0.293945C18.3618 0.293945 16.674 0.516052 15.065 0.933425C17.2442 1.52803 19.5592 2.39793 21.9957 3.61621C27.0683 6.15247 31.4477 6.9691 35.0087 6.96059ZM39.9622 17.922C35.0682 18.8884 28.3101 18.6899 20.2069 14.6383C12.6313 10.8505 6.60175 10.8982 2.53522 11.8019C2.32532 11.8485 2.12036 11.8975 1.92035 11.9485C1.38794 13.1064 0.962952 14.324 0.65802 15.5884C0.983704 15.5014 1.32025 15.4187 1.66748 15.3415C6.60089 14.2452 13.5714 14.2928 21.9957 18.505C29.5714 22.2928 35.6009 22.2451 39.6675 21.3414C39.8068 21.3105 39.9441 21.2785 40.0791 21.2455C40.0939 20.9302 40.1013 20.6129 40.1013 20.2939C40.1013 19.4914 40.0541 18.6999 39.9622 17.922ZM39.4261 25.4662C34.5796 26.3135 28.0183 25.9883 20.2069 22.0827C12.6313 18.2949 6.60175 18.3426 2.53522 19.2463C1.63257 19.4468 0.820557 19.6911 0.104248 19.949C0.102295 20.0637 0.101318 20.1787 0.101318 20.2939C0.101318 31.3396 9.05561 40.2939 20.1013 40.2939C29.3584 40.2939 37.1466 34.0048 39.4261 25.4662Z" fill="#00A5FF"/>
</svg>
